<svg width="240" height="48" viewBox="0 0 240 48" fill="none" xmlns="http://www.w3.org/2000/svg">
  <!-- Background -->
  <rect width="48" height="48" rx="6" fill="#465FFF"/>

  <!-- Book icon -->
  <path d="M12 17C12 16.4477 12.4477 16 13 16H27C27.5523 16 28 16.4477 28 17V31C28 31.5523 27.5523 32 27 32H13C12.4477 32 12 31.5523 12 31V17Z" fill="white" opacity="0.9"/>
  <path d="M14 18V19H15V18H14ZM14 20V21H15V20H14ZM14 22V23H15V22H14ZM14 24V25H15V24H14ZM14 26V27H15V26H14ZM16 18V19H17V18H16ZM16 20V21H17V20H16ZM16 22V23H17V22H16ZM16 24V25H17V24H16ZM16 26V27H17V26H16ZM18 18V19H19V18H18ZM18 20V21H19V20H18ZM18 22V23H19V22H18ZM18 24V25H19V24H18ZM18 26V27H19V26H18ZM20 18V19H21V18H20ZM20 20V21H21V20H20ZM20 22V23H21V22H20ZM20 24V25H21V24H20ZM20 26V27H21V26H20ZM22 18V19H23V18H22ZM22 20V21H23V20H22ZM22 22V23H23V22H22ZM22 24V25H23V24H22ZM22 26V27H23V26H22ZM13 17V31H27V17H13Z" fill="white" opacity="0.6"/>

  <!-- Robot icon -->
  <rect x="30" y="18" width="12" height="12" rx="1.5" fill="white"/>
  <rect x="33" y="21" width="2.5" height="2.5" rx="1.25" fill="#465FFF"/>
  <rect x="37.5" y="21" width="2.5" height="2.5" rx="1.25" fill="#465FFF"/>
  <path d="M30 30C30 29.3379 30.3379 28.75 31 28.75H37C37.6621 28.75 38 29.3379 38 30V32.25C38 32.9121 37.6621 33.5 37 33.5H31C30.3379 33.5 30 32.9121 30 32.25V30Z" fill="white"/>

  <!-- EduAssistAI text -->
  <text x="60" y="32" font-family="Arial, sans-serif" font-size="22" fill="white" font-weight="bold">EduAssistAI</text>
</svg>