<svg width="40" height="40" viewBox="0 0 40 40" fill="none" xmlns="http://www.w3.org/2000/svg">
  <!-- Background -->
  <rect width="40" height="40" rx="6" fill="#465FFF"/>

  <!-- Book icon -->
  <path d="M12 15C12 14.4477 12.4477 14 13 14H20C20.5523 14 21 14.4477 21 15V24C21 24.5523 20.5523 25 20 25H13C12.4477 25 12 24.5523 12 24V15Z" fill="white" opacity="0.9"/>
  <path d="M13.5 16V16.5H14V16H13.5ZM13.5 17V17.5H14V17H13.5ZM13.5 18V18.5H14V18H13.5ZM13.5 19V19.5H14V19H13.5ZM13.5 20V20.5H14V20H13.5ZM15 16V16.5H15.5V16H15ZM15 17V17.5H15.5V17H15ZM15 18V18.5H15.5V18H15ZM15 19V19.5H15.5V19H15ZM15 20V20.5H15.5V20H15ZM16.5 16V16.5H17V16H16.5ZM16.5 17V17.5H17V17H16.5ZM16.5 18V18.5H17V18H16.5ZM16.5 19V19.5H17V19H16.5ZM16.5 20V20.5H17V20H16.5ZM18 16V16.5H18.5V16H18ZM18 17V17.5H18.5V17H18ZM18 18V18.5H18.5V18H18ZM18 19V19.5H18.5V19H18ZM18 20V20.5H18.5V20H18ZM13 15V24H20V15H13Z" fill="white" opacity="0.6"/>

  <!-- Robot icon -->
  <rect x="23" y="16" width="8" height="8" rx="1" fill="white"/>
  <rect x="24.5" y="18" width="1.5" height="1.5" rx="0.75" fill="#465FFF"/>
  <rect x="27.5" y="18" width="1.5" height="1.5" rx="0.75" fill="#465FFF"/>
  <path d="M23 24C23 23.4477 23.4477 23 24 23H28C28.5523 23 29 23.4477 29 24V25.5C29 26.0523 28.5523 26.5 28 26.5H24C23.4477 26.5 23 26.0523 23 25.5V24Z" fill="white"/>
</svg>